<?xml version="1.0" encoding="utf-8"?>
<!-- Generator: Adobe Illustrator 16.0.0, SVG Export Plug-In . SVG Version: 6.00 Build 0)  -->
<!DOCTYPE svg PUBLIC "-//W3C//DTD SVG 1.1//EN" "http://www.w3.org/Graphics/SVG/1.1/DTD/svg11.dtd">
<svg version="1.1" id="Camada_1" xmlns="http://www.w3.org/2000/svg" xmlns:xlink="http://www.w3.org/1999/xlink" x="0px" y="0px"
	 width="300px" height="300px" viewBox="0 0 300 300" enable-background="new 0 0 300 300" xml:space="preserve">
<g>
	<g>
		<path fill="#1FA2C9" d="M823.307-142.011c30.584-38.221,61.168-76.441,91.752-114.662c1.95-2.437,3.9-4.874,5.851-7.311
			c4.384-5.479,4.786-11.881,0-17.324c-31.639-35.984-63.278-71.968-94.917-107.952c-0.896-1.018-1.79-2.036-2.686-3.054
			c-4.411-5.017-12.831-4.493-17.324,0c-4.946,4.946-4.405,12.314,0,17.324c31.639,35.984,63.278,71.968,94.917,107.951
			c0.896,1.019,1.79,2.036,2.686,3.055c0-5.774,0-11.55,0-17.324c-30.584,38.221-61.168,76.441-91.752,114.662
			c-1.95,2.437-3.9,4.874-5.851,7.311c-4.168,5.208-5.109,12.215,0,17.324C810.312-137.682,819.128-136.789,823.307-142.011
			L823.307-142.011z"/>
	</g>
</g>
<g>
	<g>
		<path fill="#1FA2C9" d="M651.908-159.335c-30.584-38.221-61.168-76.441-91.752-114.662c-1.95-2.437-3.9-4.874-5.85-7.311
			c0,5.774,0,11.55,0,17.324c31.639-35.984,63.278-71.968,94.917-107.952c0.895-1.018,1.791-2.036,2.686-3.054
			c4.405-5.01,4.946-12.378,0-17.324c-4.493-4.493-12.913-5.017-17.324,0c-31.639,35.984-63.278,71.968-94.917,107.951
			c-0.895,1.019-1.791,2.036-2.686,3.055c-4.786,5.443-4.384,11.845,0,17.324c30.584,38.221,61.168,76.441,91.752,114.662
			c1.95,2.437,3.9,4.874,5.85,7.311c4.179,5.222,12.995,4.329,17.324,0C657.017-147.12,656.076-154.127,651.908-159.335
			L651.908-159.335z"/>
	</g>
</g>
<g>
	<path d="M587.744-228.091l2.437-13.4c2.842,1.015,5.685,1.624,8.934,1.624c6.294,0,12.995-2.233,15.025-14.417l15.432-87.311
		h-16.447l2.64-14.01h33.706l-17.868,100.712c-3.655,20.914-15.432,28.833-31.066,28.833
		C595.257-226.06,591.196-227.075,587.744-228.091z M632.009-385.656c0-6.701,5.482-12.183,12.183-12.183
		s12.183,5.482,12.183,12.183s-5.482,12.183-12.183,12.183S632.009-378.956,632.009-385.656z"/>
</g>
<g>
	<path d="M733.988-284.027c0,3.686-0.508,7.023-1.521,10.014c-1.016,2.991-2.417,5.635-4.206,7.931
		c-1.79,2.296-3.925,4.272-6.408,5.928c-2.483,1.655-5.221,3.018-8.211,4.085c-2.991,1.068-6.182,1.856-9.572,2.363
		c-3.392,0.508-7.169,0.761-11.335,0.761h-27.556c-1.762,0-3.244-0.521-4.446-1.563c-1.202-1.041-1.802-2.735-1.802-5.086v-90.358
		c0-2.35,0.601-4.045,1.802-5.087c1.202-1.041,2.684-1.562,4.446-1.562h26.034c6.354,0,11.735,0.535,16.141,1.602
		c4.406,1.069,8.117,2.684,11.134,4.847c3.017,2.163,5.327,4.9,6.929,8.21c1.602,3.312,2.403,7.209,2.403,11.695
		c0,2.511-0.32,4.874-0.961,7.089c-0.641,2.217-1.576,4.233-2.804,6.048c-1.229,1.816-2.737,3.418-4.526,4.806
		c-1.79,1.39-3.833,2.511-6.128,3.365c2.937,0.534,5.647,1.469,8.13,2.804c2.483,1.335,4.646,3.058,6.489,5.167
		c1.842,2.111,3.297,4.58,4.366,7.41C733.454-290.729,733.988-287.552,733.988-284.027z M706.753-327.684
		c0-2.083-0.32-3.952-0.961-5.607c-0.641-1.655-1.602-3.03-2.884-4.125c-1.282-1.094-2.897-1.935-4.847-2.523
		c-1.95-0.587-4.553-0.881-7.81-0.881h-10.654v26.915h11.775c3.044,0,5.473-0.36,7.29-1.081c1.815-0.721,3.324-1.708,4.526-2.964
		c1.202-1.254,2.095-2.724,2.684-4.406C706.459-324.04,706.753-325.814,706.753-327.684z M712.12-283.306
		c0-2.403-0.4-4.553-1.202-6.449c-0.801-1.895-1.976-3.484-3.524-4.766c-1.55-1.282-3.525-2.27-5.928-2.964
		c-2.403-0.693-5.527-1.042-9.373-1.042h-12.496v29.479h15.22c2.937,0,5.407-0.308,7.41-0.922c2.003-0.613,3.737-1.521,5.207-2.724
		c1.468-1.201,2.616-2.695,3.444-4.485C711.706-278.967,712.12-281.009,712.12-283.306z"/>
	<path d="M827.792-255.67c0,0.588-0.108,1.081-0.32,1.482c-0.215,0.4-0.722,0.734-1.522,1.001s-1.977,0.453-3.524,0.561
		c-1.55,0.106-3.659,0.16-6.328,0.16c-2.243,0-4.033-0.054-5.367-0.16c-1.336-0.107-2.391-0.308-3.164-0.601
		c-0.775-0.293-1.322-0.667-1.643-1.121c-0.32-0.453-0.588-1.002-0.801-1.643l-9.292-23.15c-1.122-2.616-2.217-4.938-3.284-6.969
		c-1.069-2.029-2.257-3.726-3.565-5.087c-1.309-1.362-2.817-2.39-4.525-3.084c-1.71-0.693-3.685-1.041-5.928-1.041h-6.568v39.491
		c0,0.534-0.175,1.015-0.521,1.442c-0.348,0.428-0.921,0.774-1.722,1.041c-0.801,0.268-1.87,0.48-3.204,0.641
		c-1.336,0.16-3.045,0.24-5.127,0.24c-2.03,0-3.725-0.08-5.087-0.24s-2.442-0.373-3.244-0.641c-0.801-0.267-1.362-0.613-1.683-1.041
		s-0.48-0.908-0.48-1.442v-94.123c0-2.35,0.602-4.045,1.803-5.087c1.201-1.041,2.684-1.562,4.445-1.562h26.836
		c2.724,0,4.966,0.054,6.729,0.16c1.763,0.108,3.364,0.241,4.807,0.401c4.165,0.588,7.916,1.602,11.254,3.044
		c3.337,1.442,6.169,3.324,8.491,5.647c2.323,2.323,4.099,5.074,5.327,8.25c1.228,3.178,1.843,6.823,1.843,10.935
		c0,3.472-0.44,6.636-1.322,9.492c-0.881,2.857-2.177,5.407-3.885,7.65c-1.71,2.243-3.818,4.193-6.328,5.848
		c-2.511,1.656-5.367,2.992-8.571,4.005c1.548,0.749,3.004,1.656,4.365,2.723c1.362,1.069,2.644,2.363,3.846,3.886
		c1.201,1.521,2.335,3.258,3.404,5.207c1.067,1.949,2.108,4.152,3.124,6.608l8.731,20.427c0.801,2.03,1.334,3.512,1.602,4.445
		C827.657-256.938,827.792-256.203,827.792-255.67z M800.636-326.002c0-3.417-0.774-6.301-2.322-8.651
		c-1.55-2.349-4.086-4.005-7.61-4.966c-1.069-0.267-2.283-0.481-3.645-0.641c-1.362-0.16-3.244-0.24-5.647-0.24h-9.452v29.398
		h10.733c2.99,0,5.607-0.36,7.851-1.081c2.243-0.721,4.111-1.735,5.607-3.044c1.494-1.308,2.616-2.87,3.364-4.686
		C800.262-321.729,800.636-323.759,800.636-326.002z"/>
</g>
<g>
	<g>
		<path fill="#1FA2C9" d="M220.935-247.757c24.228-30.277,48.455-60.554,72.683-90.831c3.382-4.227,3.692-9.165,0-13.364
			c-24.228-27.555-48.455-55.109-72.683-82.664c-8.063-9.17-21.377,4.251-13.364,13.364c24.228,27.555,48.455,55.109,72.683,82.664
			c0-4.455,0-8.91,0-13.364c-24.228,30.277-48.455,60.553-72.683,90.83c-3.215,4.019-3.941,9.424,0,13.365
			C210.91-244.418,217.712-243.729,220.935-247.757L220.935-247.757z"/>
	</g>
</g>
<g>
	<g>
		<path fill="#1FA2C9" d="M93.298-261.122c-24.228-30.276-48.455-60.553-72.682-90.83c0,4.455,0,8.91,0,13.364
			c24.228-27.555,48.455-55.109,72.682-82.664c8.013-9.113-5.301-22.535-13.364-13.364c-24.228,27.555-48.455,55.109-72.682,82.664
			c-3.692,4.199-3.382,9.138,0,13.364c24.228,30.277,48.455,60.553,72.682,90.831c3.223,4.027,10.025,3.339,13.364,0
			C97.24-251.698,96.514-257.104,93.298-261.122L93.298-261.122z"/>
	</g>
</g>
<g>
	<path d="M45.285-312.09l1.815-9.98c2.116,0.756,4.233,1.21,6.652,1.21c4.688,0,9.677-1.663,11.189-10.735l11.492-65.019H64.186
		l1.966-10.433h25.101L77.946-332.05c-2.721,15.575-11.491,21.472-23.134,21.472C50.88-310.578,47.856-311.334,45.285-312.09z
		 M78.248-429.426c0-4.991,4.083-9.073,9.072-9.073c4.99,0,9.072,4.082,9.072,9.073c0,4.989-4.082,9.072-9.072,9.072
		C82.331-420.354,78.248-424.437,78.248-429.426z"/>
</g>
<g>
	<path d="M154.19-353.746c0,2.745-0.379,5.23-1.133,7.457c-0.756,2.229-1.8,4.197-3.132,5.906c-1.333,1.71-2.923,3.182-4.772,4.414
		c-1.85,1.232-3.888,2.248-6.115,3.043c-2.227,0.795-4.603,1.381-7.128,1.76c-2.526,0.378-5.338,0.566-8.44,0.566h-20.52
		c-1.313,0-2.417-0.388-3.312-1.164c-0.895-0.775-1.342-2.037-1.342-3.787v-67.288c0-1.75,0.447-3.012,1.342-3.789
		c0.895-0.774,1.999-1.163,3.312-1.163h19.387c4.732,0,8.739,0.397,12.02,1.193c3.281,0.796,6.044,1.999,8.291,3.609
		c2.247,1.611,3.967,3.649,5.16,6.114c1.193,2.466,1.79,5.369,1.79,8.709c0,1.869-0.238,3.629-0.716,5.279
		c-0.477,1.65-1.173,3.152-2.087,4.503c-0.915,1.353-2.038,2.546-3.37,3.579c-1.333,1.035-2.854,1.871-4.564,2.506
		c2.188,0.398,4.206,1.094,6.055,2.087c1.849,0.995,3.459,2.277,4.832,3.847c1.372,1.572,2.456,3.411,3.25,5.519
		C153.792-358.735,154.19-356.371,154.19-353.746z M133.909-386.256c0-1.551-0.238-2.942-0.716-4.176
		c-0.477-1.232-1.193-2.256-2.147-3.072c-0.955-0.813-2.158-1.44-3.608-1.878c-1.453-0.438-3.391-0.657-5.817-0.657h-7.934v20.044
		h8.769c2.267,0,4.076-0.269,5.428-0.806c1.352-0.537,2.476-1.272,3.37-2.207c0.896-0.934,1.561-2.028,1.999-3.281
		C133.689-383.542,133.909-384.863,133.909-386.256z M137.905-353.207c0-1.791-0.298-3.392-0.895-4.804
		c-0.596-1.411-1.471-2.595-2.624-3.548c-1.154-0.956-2.625-1.691-4.414-2.208c-1.791-0.516-4.117-0.776-6.979-0.776h-9.306v21.953
		h11.333c2.188,0,4.027-0.229,5.518-0.687c1.492-0.456,2.782-1.133,3.877-2.028c1.094-0.895,1.949-2.007,2.565-3.34
		C137.597-349.977,137.905-351.498,137.905-353.207z"/>
	<path d="M224.044-332.629c0,0.439-0.081,0.805-0.238,1.104c-0.161,0.299-0.538,0.547-1.135,0.745
		c-0.596,0.199-1.471,0.338-2.624,0.418c-1.154,0.078-2.725,0.119-4.712,0.119c-1.67,0-3.003-0.041-3.997-0.119
		c-0.995-0.08-1.781-0.229-2.356-0.447c-0.577-0.219-0.984-0.496-1.223-0.835c-0.239-0.338-0.438-0.747-0.597-1.224l-6.919-17.239
		c-0.835-1.948-1.651-3.677-2.446-5.19c-0.796-1.51-1.681-2.773-2.655-3.787c-0.974-1.015-2.098-1.779-3.37-2.297
		c-1.272-0.517-2.743-0.775-4.414-0.775h-4.892v29.408c0,0.398-0.13,0.756-0.388,1.074c-0.26,0.318-0.687,0.576-1.282,0.776
		c-0.596,0.198-1.393,0.356-2.386,0.477c-0.995,0.12-2.268,0.179-3.818,0.179c-1.512,0-2.773-0.059-3.788-0.179
		c-1.015-0.12-1.819-0.278-2.416-0.477c-0.597-0.2-1.015-0.458-1.254-0.776c-0.238-0.318-0.357-0.676-0.357-1.074v-70.091
		c0-1.75,0.447-3.012,1.341-3.789c0.895-0.774,2-1.163,3.311-1.163h19.984c2.028,0,3.698,0.04,5.011,0.119
		c1.312,0.081,2.505,0.179,3.58,0.299c3.101,0.438,5.895,1.193,8.38,2.266c2.485,1.074,4.594,2.476,6.323,4.206
		c1.73,1.729,3.052,3.778,3.967,6.144c0.914,2.367,1.372,5.081,1.372,8.143c0,2.585-0.327,4.941-0.984,7.069
		c-0.656,2.127-1.621,4.026-2.893,5.696c-1.274,1.671-2.844,3.123-4.713,4.354c-1.87,1.233-3.997,2.228-6.383,2.983
		c1.153,0.557,2.237,1.232,3.251,2.027c1.015,0.797,1.968,1.761,2.863,2.894c0.895,1.133,1.739,2.427,2.535,3.879
		c0.794,1.451,1.57,3.092,2.327,4.92l6.501,15.212c0.597,1.511,0.994,2.615,1.193,3.31
		C223.943-333.572,224.044-333.025,224.044-332.629z M203.821-385.003c0-2.544-0.578-4.692-1.729-6.442
		c-1.154-1.75-3.043-2.983-5.667-3.698c-0.796-0.199-1.7-0.358-2.714-0.478c-1.015-0.119-2.416-0.179-4.206-0.179h-7.039v21.892
		h7.993c2.228,0,4.176-0.269,5.847-0.805c1.67-0.538,3.061-1.292,4.176-2.268c1.113-0.974,1.947-2.136,2.505-3.489
		C203.542-381.821,203.821-383.333,203.821-385.003z"/>
</g>
<rect x="534" fill="#1FA2C9" width="400" height="400"/>
<g>
	<g>
		<g>
			<path fill="#FFFFFF" d="M828.361,349.35c30.584-38.221,61.169-76.441,91.753-114.662c1.95-2.437,3.9-4.874,5.851-7.311
				c4.384-5.479,4.786-11.881,0-17.324c-31.64-35.983-63.278-71.968-94.918-107.951c-0.896-1.019-1.79-2.036-2.686-3.055
				c-4.412-5.018-12.831-4.493-17.324,0c-4.946,4.946-4.405,12.314,0,17.324c31.64,35.983,63.278,71.968,94.918,107.951
				c0.896,1.019,1.79,2.036,2.686,3.055c0-5.774,0-11.55,0-17.324c-30.584,38.221-61.169,76.441-91.753,114.662
				c-1.95,2.437-3.9,4.874-5.851,7.311c-4.168,5.209-5.109,12.215,0,17.324C815.366,353.679,824.183,354.571,828.361,349.35
				L828.361,349.35z"/>
		</g>
	</g>
	<g>
		<g>
			<path fill="#FFFFFF" d="M656.963,332.025c-30.584-38.221-61.168-76.441-91.752-114.662c-1.95-2.437-3.9-4.873-5.85-7.311
				c0,5.774,0,11.55,0,17.324c31.639-35.984,63.278-71.968,94.917-107.951c0.895-1.019,1.791-2.037,2.686-3.055
				c4.405-5.01,4.946-12.378,0-17.324c-4.493-4.492-12.913-5.018-17.324,0c-31.639,35.984-63.278,71.968-94.917,107.951
				c-0.895,1.019-1.791,2.037-2.686,3.055c-4.786,5.443-4.384,11.845,0,17.324c30.584,38.221,61.168,76.441,91.752,114.662
				c1.95,2.437,3.9,4.873,5.85,7.311c4.179,5.222,12.995,4.329,17.324,0C662.072,344.24,661.131,337.234,656.963,332.025
				L656.963,332.025z"/>
		</g>
	</g>
	<g>
		<path fill="#020202" d="M592.799,263.27l2.437-13.4c2.842,1.014,5.685,1.623,8.934,1.623c6.294,0,12.995-2.232,15.025-14.416
			l15.432-87.311h-16.447l2.64-14.011h33.706l-17.868,100.712c-3.655,20.914-15.432,28.834-31.066,28.834
			C600.313,265.301,596.251,264.285,592.799,263.27z M637.064,105.703c0-6.7,5.482-12.183,12.183-12.183s12.183,5.482,12.183,12.183
			c0,6.701-5.482,12.184-12.183,12.184S637.064,112.404,637.064,105.703z"/>
	</g>
	<g>
		<path fill="#FFFFFF" d="M739.044,207.332c0,3.686-0.509,7.023-1.522,10.014c-1.015,2.992-2.416,5.635-4.205,7.932
			c-1.79,2.295-3.925,4.271-6.408,5.928c-2.483,1.654-5.221,3.018-8.211,4.084c-2.991,1.068-6.182,1.857-9.572,2.363
			c-3.392,0.508-7.169,0.762-11.335,0.762h-27.556c-1.762,0-3.244-0.521-4.446-1.563s-1.802-2.736-1.802-5.086v-90.359
			c0-2.35,0.601-4.045,1.802-5.086s2.684-1.563,4.446-1.563h26.034c6.354,0,11.735,0.535,16.141,1.602
			c4.406,1.069,8.117,2.684,11.134,4.848c3.017,2.162,5.327,4.899,6.929,8.21c1.602,3.312,2.403,7.21,2.403,11.695
			c0,2.511-0.32,4.874-0.962,7.089c-0.641,2.217-1.575,4.233-2.803,6.049c-1.229,1.816-2.737,3.418-4.526,4.806
			c-1.79,1.39-3.833,2.511-6.128,3.364c2.937,0.535,5.647,1.47,8.13,2.805c2.483,1.335,4.647,3.057,6.489,5.166
			c1.842,2.111,3.297,4.58,4.365,7.41S739.044,203.809,739.044,207.332z M711.808,163.676c0-2.082-0.32-3.951-0.961-5.607
			c-0.641-1.654-1.602-3.03-2.884-4.125c-1.282-1.094-2.897-1.936-4.847-2.523c-1.95-0.588-4.553-0.881-7.81-0.881h-10.654v26.914
			h11.775c3.044,0,5.473-0.359,7.29-1.08c1.815-0.722,3.324-1.709,4.526-2.965c1.202-1.254,2.095-2.723,2.684-4.405
			C711.514,167.32,711.808,165.546,711.808,163.676z M717.175,208.055c0-2.404-0.4-4.553-1.202-6.449
			c-0.801-1.895-1.976-3.484-3.524-4.766c-1.55-1.283-3.525-2.27-5.928-2.965c-2.403-0.693-5.527-1.041-9.373-1.041h-12.496v29.479
			h15.22c2.937,0,5.407-0.307,7.41-0.922c2.003-0.613,3.737-1.521,5.207-2.723c1.468-1.201,2.616-2.695,3.444-4.486
			C716.761,212.393,717.175,210.352,717.175,208.055z"/>
		<path fill="#FFFFFF" d="M832.848,235.689c0,0.588-0.109,1.082-0.32,1.482c-0.215,0.4-0.723,0.734-1.523,1.002
			c-0.801,0.266-1.977,0.453-3.523,0.561c-1.551,0.105-3.66,0.16-6.328,0.16c-2.244,0-4.033-0.055-5.367-0.16
			c-1.336-0.107-2.391-0.309-3.164-0.602c-0.775-0.293-1.322-0.666-1.643-1.121c-0.32-0.453-0.588-1.002-0.801-1.643l-9.293-23.15
			c-1.121-2.615-2.217-4.938-3.283-6.969c-1.07-2.029-2.258-3.725-3.566-5.086c-1.309-1.363-2.816-2.391-4.525-3.084
			s-3.684-1.041-5.928-1.041h-6.568v39.49c0,0.535-0.174,1.016-0.521,1.443s-0.92,0.773-1.721,1.041s-1.871,0.48-3.205,0.641
			c-1.336,0.16-3.044,0.24-5.127,0.24c-2.029,0-3.725-0.08-5.086-0.24c-1.362-0.16-2.443-0.373-3.244-0.641
			s-1.362-0.613-1.683-1.041s-0.48-0.908-0.48-1.443v-94.123c0-2.35,0.601-4.045,1.802-5.086c1.202-1.041,2.684-1.563,4.446-1.563
			h26.835c2.725,0,4.967,0.054,6.729,0.16c1.764,0.107,3.365,0.24,4.807,0.4c4.166,0.588,7.916,1.603,11.254,3.045
			c3.338,1.441,6.17,3.324,8.492,5.646c2.322,2.323,4.098,5.074,5.326,8.251c1.229,3.179,1.844,6.823,1.844,10.935
			c0,3.472-0.441,6.637-1.322,9.492c-0.881,2.857-2.178,5.407-3.885,7.65c-1.711,2.242-3.818,4.193-6.328,5.848
			c-2.512,1.656-5.367,2.991-8.572,4.005c1.549,0.749,3.004,1.655,4.365,2.724c1.363,1.068,2.645,2.363,3.846,3.885
			s2.336,3.258,3.404,5.207s2.109,4.152,3.125,6.609l8.73,20.426c0.801,2.031,1.334,3.512,1.602,4.445
			C832.713,234.422,832.848,235.156,832.848,235.689z M805.691,165.357c0-3.416-0.775-6.301-2.322-8.65
			c-1.551-2.35-4.086-4.006-7.611-4.967c-1.068-0.267-2.283-0.48-3.645-0.641s-3.244-0.24-5.646-0.24h-9.453v29.398h10.734
			c2.99,0,5.607-0.361,7.85-1.082c2.244-0.721,4.111-1.734,5.607-3.044c1.494-1.308,2.617-2.87,3.365-4.687
			C805.316,169.631,805.691,167.602,805.691,165.357z"/>
	</g>
</g>
<rect fill="#1FA2C9" width="300" height="300"/>
<g>
	<g>
		<g>
			<path fill="#FFFFFF" d="M220.956,245.197c24.401-30.492,48.802-60.986,73.203-91.479c3.382-4.227,3.692-9.166,0-13.365
				c-24.401-27.751-48.802-55.502-73.203-83.254c-8.063-9.17-21.377,4.251-13.364,13.365c24.401,27.751,48.802,55.502,73.203,83.254
				c0-4.455,0-8.91,0-13.365c-24.401,30.494-48.802,60.986-73.203,91.48c-3.215,4.018-3.941,9.423,0,13.363
				C210.931,248.537,217.733,249.226,220.956,245.197L220.956,245.197z"/>
		</g>
	</g>
	<g>
		<g>
			<path fill="#FFFFFF" d="M92.408,231.834c-24.4-30.494-48.801-60.986-73.202-91.48c0,4.455,0,8.91,0,13.365
				c24.4-27.752,48.801-55.503,73.202-83.254c8.013-9.114-5.301-22.535-13.364-13.365c-24.4,27.752-48.801,55.503-73.202,83.254
				c-3.692,4.2-3.382,9.138,0,13.365c24.4,30.492,48.801,60.986,73.202,91.479c3.223,4.028,10.025,3.34,13.364,0
				C96.349,241.257,95.623,235.852,92.408,231.834L92.408,231.834z"/>
		</g>
	</g>
	<g>
		<path fill="#020202" d="M44.1,180.452l1.828-10.051c2.132,0.761,4.264,1.218,6.701,1.218c4.721,0,9.746-1.675,11.269-10.813
			l11.574-65.482H63.136l1.979-10.508h25.279L76.993,160.35c-2.74,15.686-11.574,21.626-23.299,21.626
			C49.734,181.976,46.689,181.214,44.1,180.452z M77.298,62.277c0-5.025,4.111-9.137,9.137-9.137c5.025,0,9.137,4.111,9.137,9.137
			c0,5.026-4.112,9.137-9.137,9.137C81.41,71.414,77.298,67.304,77.298,62.277z"/>
	</g>
	<g>
		<path fill="#FFFFFF" d="M153.783,138.498c0,2.766-0.382,5.269-1.143,7.512c-0.76,2.244-1.812,4.226-3.153,5.948
			c-1.342,1.721-2.944,3.203-4.806,4.445c-1.862,1.241-3.915,2.264-6.158,3.064c-2.244,0.8-4.636,1.392-7.179,1.771
			c-2.544,0.38-5.377,0.571-8.501,0.571h-20.667c-1.321,0-2.433-0.391-3.333-1.172c-0.901-0.78-1.352-2.053-1.352-3.814v-67.77
			c0-1.763,0.451-3.034,1.352-3.814c0.901-0.781,2.012-1.173,3.333-1.173h19.526c4.766,0,8.802,0.402,12.106,1.202
			c3.304,0.802,6.087,2.014,8.351,3.636c2.263,1.622,3.996,3.675,5.198,6.158c1.201,2.483,1.802,5.406,1.802,8.771
			c0,1.884-0.24,3.656-0.721,5.316c-0.48,1.663-1.181,3.175-2.103,4.537c-0.921,1.363-2.053,2.563-3.395,3.604
			c-1.342,1.042-2.874,1.883-4.596,2.522c2.202,0.401,4.236,1.103,6.098,2.104c1.863,1,3.485,2.292,4.867,3.873
			c1.381,1.585,2.473,3.436,3.274,5.559C153.382,133.473,153.783,135.857,153.783,138.498z M133.356,105.756
			c0-1.561-0.24-2.962-0.721-4.204c-0.481-1.24-1.202-2.272-2.163-3.095c-0.961-0.82-2.173-1.45-3.635-1.893
			c-1.462-0.44-3.415-0.66-5.858-0.66h-7.99v20.186h8.832c2.283,0,4.104-0.269,5.467-0.81c1.361-0.542,2.494-1.282,3.394-2.224
			c0.902-0.941,1.572-2.042,2.013-3.304C133.135,108.489,133.356,107.16,133.356,105.756z M137.381,139.041
			c0-1.803-0.3-3.415-0.901-4.837c-0.6-1.421-1.482-2.612-2.643-3.574c-1.162-0.962-2.644-1.702-4.446-2.224
			c-1.802-0.52-4.146-0.78-7.03-0.78h-9.372v22.107h11.415c2.203,0,4.055-0.229,5.558-0.69c1.502-0.46,2.803-1.141,3.905-2.042
			c1.102-0.901,1.962-2.021,2.583-3.364C137.071,142.295,137.381,140.764,137.381,139.041z"/>
		<path fill="#FFFFFF" d="M224.136,159.767c0,0.441-0.083,0.812-0.24,1.112c-0.161,0.301-0.542,0.551-1.142,0.752
			c-0.602,0.198-1.483,0.34-2.643,0.42c-1.163,0.079-2.745,0.12-4.746,0.12c-1.683,0-3.025-0.041-4.026-0.12
			c-1.001-0.08-1.792-0.231-2.373-0.451c-0.581-0.22-0.992-0.499-1.232-0.84c-0.24-0.341-0.441-0.752-0.6-1.232l-6.971-17.363
			c-0.84-1.962-1.662-3.703-2.462-5.227c-0.803-1.522-1.694-2.793-2.675-3.814c-0.981-1.022-2.112-1.792-3.395-2.313
			c-1.281-0.519-2.763-0.78-4.445-0.78h-4.926v29.618c0,0.4-0.13,0.762-0.391,1.082c-0.261,0.32-0.69,0.581-1.291,0.78
			c-0.601,0.201-1.403,0.36-2.404,0.48c-1.001,0.121-2.282,0.181-3.845,0.181c-1.521,0-2.793-0.06-3.814-0.181
			c-1.022-0.12-1.833-0.279-2.433-0.48c-0.601-0.199-1.022-0.46-1.262-0.78s-0.36-0.682-0.36-1.082V89.055
			c0-1.763,0.451-3.034,1.351-3.814c0.901-0.781,2.013-1.173,3.334-1.173h20.126c2.044,0,3.726,0.042,5.047,0.121
			c1.323,0.08,2.524,0.181,3.604,0.3c3.125,0.441,5.938,1.202,8.441,2.284c2.503,1.081,4.627,2.493,6.369,4.235
			c1.742,1.742,3.073,3.806,3.994,6.188c0.922,2.384,1.383,5.117,1.383,8.202c0,2.604-0.332,4.977-0.992,7.119
			c-0.661,2.143-1.633,4.055-2.914,5.737c-1.284,1.682-2.864,3.145-4.746,4.385c-1.884,1.242-4.025,2.244-6.43,3.004
			c1.163,0.562,2.253,1.242,3.274,2.043c1.022,0.801,1.983,1.772,2.884,2.913c0.901,1.142,1.752,2.444,2.553,3.906
			s1.582,3.113,2.344,4.956l6.548,15.32c0.601,1.522,1,2.634,1.201,3.334C224.035,158.816,224.136,159.367,224.136,159.767z
			 M203.769,107.019c0-2.563-0.582-4.727-1.741-6.488c-1.164-1.763-3.065-3.005-5.709-3.725c-0.801-0.2-1.712-0.361-2.733-0.48
			c-1.021-0.121-2.433-0.181-4.235-0.181h-7.089v22.049h8.051c2.243,0,4.206-0.271,5.888-0.812c1.683-0.54,3.083-1.3,4.205-2.283
			c1.122-0.981,1.963-2.152,2.524-3.516C203.487,110.223,203.769,108.701,203.769,107.019z"/>
	</g>
</g>
<g>
	<rect x="-156.537" y="1.148" fill="#330303" width="10.648" height="63.254"/>
	<rect x="-156.537" y="237.895" fill="#330303" width="10.648" height="63.254"/>
</g>
</svg>
